<svg xmlns="http://www.w3.org/2000/svg" width="200" height="50" viewBox="0 0 200 50">
    <g fill="none" fill-rule="evenodd">
        <path d="M0 0H200V50H0z"/>
        <path fill="#728099" fill-rule="nonzero" d="M28.855 7c9.862 0 17.856 7.994 17.856 17.855 0 9.862-7.994 17.856-17.856 17.856C18.995 42.71 11 34.717 11 24.855 11 14.995 18.994 7 28.855 7zm-.037 32.634c-.646-.01-1.1.39-1.11.979-.007.504.338.969 1.027.98.22.003.445-.045.53-.061.035-.071.092-.218.136-.344l.029-.09-.086-.03c-.152.286-.298.42-.593.415-.467-.007-.75-.37-.741-.926.007-.476.264-.824.74-.817.11.002.228.024.302.06.122.052.189.144.24.285l.028.091.09-.019c-.02-.144-.038-.318-.048-.448-.095-.016-.296-.07-.544-.075zm2.165-.114c-.03.005-.116.017-.31.039l-.106.011-.878.094.009.08c.193-.002.24.006.268.187l.01.077.12 1.133c.023.21.012.254-.177.296l-.079.016.009.08 1.394-.149c.016-.071.048-.28.065-.4l.01-.07-.089-.013c-.03.09-.078.214-.127.28-.045.068-.071.1-.18.119l-.076.01-.266.029c-.124.01-.189.004-.219-.124l-.012-.075-.06-.57.315-.035c.18-.019.223-.001.27.14l.022.067.089-.01-.063-.59-.09.01c-.011.173-.02.229-.166.256l-.072.01-.318.034-.068-.635c-.007-.066-.006-.085.04-.095l.045-.007.272-.029c.172-.018.24-.005.297.085.025.038.049.076.073.125l.036.084.085-.024c-.028-.15-.063-.365-.073-.436zm-4.262.009l-.01.08c.207.047.247.064.233.24l-.008.074-.133 1.137c-.025.217-.047.248-.219.251h-.071l-.01.08.768.09.01-.08c-.209-.048-.25-.062-.236-.238l.008-.073.133-1.138c.025-.22.047-.25.22-.253h.073l.01-.08-.768-.09zm5.632-.261h-.116c-.076 0-.173.005-.268.025-.372.079-.531.36-.478.612.056.262.25.362.581.46.277.084.412.147.458.364.039.183-.056.35-.26.394-.26.055-.428-.112-.53-.274l-.035-.06-.083.04c.052.149.126.334.166.408.125.02.282.038.451.002.365-.077.574-.358.511-.654-.057-.268-.231-.367-.607-.47-.26-.072-.405-.145-.446-.34-.031-.146.01-.323.231-.37.232-.049.352.073.436.222l.035.065.084-.036c-.062-.178-.097-.289-.13-.388zm-7.615-.138l-.018.079c.169.054.21.093.244.319.058.377.135.934.198 1.393l.036.262.093.02c.215-.32.81-1.178.927-1.348.138-.202.196-.24.338-.234l.067.004.018-.08-.649-.141-.017.079c.225.079.253.111.155.261-.21.327-.496.745-.725 1.076-.076-.506-.159-1.112-.184-1.334-.015-.098-.002-.135.144-.127l.071.006.018-.079-.716-.156zm-1.465-.519l-.027.076c.181.087.225.112.179.273l-.025.077-.378 1.088c-.072.206-.098.232-.268.197l-.07-.015-.027.076.728.253.026-.077c-.184-.085-.226-.114-.18-.275l.025-.078.149-.428.095.033c.14.049.17.077.193.183.04.17.078.376.13.55.061.21.15.299.344.382l.05.021.049.02.037-.073c-.057-.038-.109-.09-.155-.195-.039-.09-.067-.176-.118-.355-.039-.151-.093-.375-.112-.476.232-.017.433-.113.514-.347.058-.166.027-.315-.06-.424-.064-.083-.157-.146-.293-.202l-.111-.042-.695-.242zm11.59-.172c-.093.02-.3.044-.532.132-.604.231-.877.77-.667 1.32.18.472.673.775 1.317.53.205-.079.397-.208.469-.254.006-.079.005-.236-.002-.37l-.006-.093-.09.004c-.035.322-.122.5-.397.605-.436.166-.834-.065-1.032-.585-.17-.445-.061-.863.384-1.033.102-.04.22-.063.302-.057.128.003.221.059.317.163l.072.087.077-.05c-.074-.127-.154-.282-.211-.4zm-13.075-.531l-.035.073c.163.098.2.13.133.292l-.036.078-.494 1.027c-.091.19-.125.222-.307.158l-.076-.028-.035.073 1.264.608c.05-.053.188-.213.266-.306l.045-.054-.068-.058c-.074.06-.18.14-.256.171-.074.034-.113.047-.215.006l-.07-.031-.242-.116c-.11-.056-.163-.096-.12-.22l.029-.07.249-.518.286.138c.164.078.19.116.157.26l-.018.07.08.038.258-.536-.08-.039c-.102.142-.139.185-.277.13l-.066-.029-.289-.139.277-.574c.029-.06.04-.076.085-.06l.04.018.247.119c.157.075.208.122.208.227.001.046.002.091-.004.146l-.013.09.084.024c.056-.143.14-.343.168-.409-.028-.01-.107-.046-.283-.13l-.096-.046-.796-.383zm2.108 1.027c.21.073.367.246.266.538-.051.147-.133.241-.267.283-.066.025-.137.026-.229.004l-.098-.029-.13-.046.231-.667c.025-.071.042-.096.074-.106.024-.01.074-.005.153.023zM35.98 37.79c-.534.293-.624.89-.376 1.342.262.475.818.65 1.304.383.465-.255.648-.797.35-1.34-.277-.504-.846-.623-1.278-.385zm1.059.597c.268.488.163.842-.143 1.01-.36.197-.808-.008-1.066-.478-.26-.473-.133-.852.15-1.008.332-.182.767-.055 1.059.476zm-16.601-.767c-.142.228-.07.436.1.735.142.252.195.39.078.58-.1.158-.283.214-.46.104-.226-.14-.232-.378-.193-.566l.017-.067-.089-.028c-.065.143-.14.328-.162.409.076.101.177.222.324.314.316.196.661.14.821-.118.145-.233.088-.425-.111-.76-.138-.231-.193-.384-.088-.553.08-.128.233-.226.424-.107.201.125.203.295.161.462l-.02.07.085.033c.08-.171.13-.275.176-.37-.046-.042-.158-.162-.295-.248-.323-.2-.633-.108-.768.11zm8.418-26.899c-7.806 0-14.134 6.328-14.134 14.134S21.05 38.99 28.855 38.99 42.99 32.661 42.99 24.855s-6.328-14.134-14.134-14.134zm10.01 25.106l-.4.31.358 1.575-1.4-.764-.397.308.05.064c.214-.138.267-.117.35.009.587.877.648.961.712 1.072.065.114.052.182-.024.269l-.053.054.05.064.54-.42-.05-.063c-.168.104-.239.13-.34.004-.034-.043-.171-.225-.752-1.052.444.25 1.091.62 1.39.8l.086.051.06-.046c-.07-.238-.246-.992-.38-1.549l-.039-.16.72.93c.17.216.192.255.074.376l-.051.05.05.063.605-.47-.05-.065c-.192.12-.225.13-.37-.037l-.06-.07-.689-.868c-.112-.136-.12-.184 0-.311l.06-.06-.05-.064zm-2.302-1.819l1.074.268.863.215c-1.256 1.256-2.714 2.239-4.338 2.926-.209.088-.42.17-.632.248-.228.085-.458.163-.694.234l-.358.102c-1.172.324-2.385.488-3.623.488-1.049 0-2.08-.118-3.085-.35-.54-.116-1.051-.272-1.59-.474-.212-.077-.423-.16-.632-.248-1.389-.588-2.657-1.392-3.778-2.396l-.332-.308.904-.234 1.048-.271c.788.63 1.65 1.157 2.575 1.572.69-.998 2.62-1.716 4.89-1.716 2.272 0 4.2.718 4.891 1.716 1.02-.458 1.964-1.051 2.817-1.772zm-17.739 1.798l-.051.062c.142.144.17.185.07.32l-.051.063-.732.882c-.137.165-.174.183-.328.086l-.074-.049-.051.062 1.032.857c.064-.04.242-.16.346-.237l.062-.047-.054-.075c-.101.055-.222.105-.325.117-.097.013-.142-.001-.255-.095l-.174-.148c-.106-.092-.116-.139-.046-.236l.042-.053.75-.903c.139-.168.18-.18.317-.093l.066.043.051-.063-.595-.493zm-.72-.76l-1.508.615c-.225.093-.289.09-.397.01l-.049-.038-.058.056.46.482.059-.056c-.143-.191-.154-.236.025-.32l.17-.076.18-.08.432.45c-.09.17-.154.312-.21.417-.044.09-.077.105-.178.032l-.056-.044-.059.056.493.515.059-.056c-.125-.164-.127-.198-.01-.439.158-.317.324-.655.486-.984l.237-.486-.076-.054zm22.473-1.08l-.34.373.621 1.491-1.51-.514-.339.372.06.054c.188-.172.244-.16.347-.05.728.764.803.836.885.934.083.102.083.17.022.269l-.043.063.06.054.46-.505-.06-.055c-.147.132-.212.17-.334.063-.032-.03-.147-.137-.566-.555l-.354-.354c.48.17 1.181.425 1.506.55l.094.037.05-.055c-.108-.224-.41-.936-.638-1.462l-.066-.152.868.795c.205.183.233.217.137.357l-.042.057.06.055.517-.568-.06-.054c-.169.151-.2.165-.372.027l-.07-.06-.828-.737c-.134-.115-.149-.161-.053-.307l.048-.069-.06-.054zm140.07-5.05c.947 0 1.664.443 2.03 1.114.214.397.29.947.29 1.573v2.549c0 .626-.076 1.175-.29 1.572-.366.672-1.083 1.115-2.03 1.115-.946 0-1.664-.443-2.03-1.115-.214-.397-.29-.946-.29-1.572v-2.55c0-.625.076-1.175.29-1.572.366-.671 1.084-1.114 2.03-1.114zm-110.598 0c1.298 0 2.336.824 2.336 2.442v5.39h-1.558v-.795h-.03c-.412.565-.748.886-1.496.886-.718 0-1.68-.351-1.68-2.061 0-1.77.504-2.626 2.458-2.626.214 0 .428.03.748.046v-.81c0-.518-.198-.915-.778-.915-.397 0-.794.275-.885.779h-1.512c.046-.687.29-1.267.702-1.68.413-.412.993-.656 1.695-.656zm10.915 0c1.435 0 2.32 1.038 2.32 2.473h-1.557c0-.626-.29-.916-.763-.916-.473 0-.764.305-.764.885v3.16c0 .489.29.764.764.764.595 0 .732-.443.763-.779h1.557c0 .641-.229 1.237-.626 1.649-.412.427-.977.687-1.694.687-.947 0-1.664-.443-2.03-1.115-.214-.397-.29-.946-.29-1.572v-2.55c0-.625.076-1.175.29-1.572.366-.671 1.083-1.114 2.03-1.114zm7.327 0c1.298 0 2.336.824 2.336 2.442v5.39H89.07v-.795h-.03c-.413.565-.749.886-1.497.886-.717 0-1.679-.351-1.679-2.061 0-1.77.504-2.626 2.458-2.626.213 0 .427.03.748.046v-.81c0-.518-.199-.915-.779-.915-.397 0-.794.275-.885.779h-1.511c.045-.687.29-1.267.702-1.68.412-.412.992-.656 1.694-.656zm4.488-3.038v8.686c0 .58.168.748.764.81v1.465c-1.435 0-2.32-.367-2.32-2.168v-8.793h1.556zm5.832-.091c1.557 0 2.595 1.251 2.595 2.457v.764h-1.557v-.352c0-.717-.306-1.312-1.1-1.312-.854 0-1.053.687-1.053 1.404 0 .84.077 1.13.886 1.45l1.19.473c1.374.52 1.634 1.39 1.634 2.977 0 1.832-.672 3.19-2.687 3.19-1.511 0-2.656-1.114-2.656-2.58v-.58h1.557v.49c0 .564.305 1.114 1.1 1.114 1.052 0 1.129-.626 1.129-1.619 0-1.16-.138-1.343-.901-1.648l-1.114-.458c-1.344-.55-1.695-1.435-1.695-2.794 0-1.648.886-2.976 2.672-2.976zm5.388 3.129c1.435 0 2.32 1.053 2.32 2.412v2.137h-3.083v1.053c0 .489.29.764.763.764.596 0 .733-.443.764-.779h1.557c0 .641-.23 1.237-.626 1.649-.412.427-.977.687-1.695.687-.946 0-1.664-.443-2.03-1.115-.214-.397-.29-.946-.29-1.572v-2.55c0-.625.076-1.175.29-1.572.366-.671 1.084-1.114 2.03-1.114zm16.502 0c1.435 0 2.32 1.038 2.32 2.473h-1.556c0-.626-.29-.916-.764-.916-.473 0-.763.305-.763.885v3.16c0 .489.29.764.763.764.596 0 .733-.443.764-.779h1.557c0 .641-.23 1.237-.626 1.649-.412.427-.977.687-1.695.687-.946 0-1.664-.443-2.03-1.115-.214-.397-.29-.946-.29-1.572v-2.55c0-.625.076-1.175.29-1.572.366-.671 1.084-1.114 2.03-1.114zm4.962 0c1.435 0 2.32 1.053 2.32 2.412v2.137h-3.084v1.053c0 .489.29.764.764.764.595 0 .732-.443.763-.779h1.557c0 .641-.229 1.237-.626 1.649-.412.427-.977.687-1.694.687-.947 0-1.664-.443-2.03-1.115-.214-.397-.29-.946-.29-1.572v-2.55c0-.625.076-1.175.29-1.572.366-.671 1.083-1.114 2.03-1.114zm5.098 0c1.267 0 2.183.977 2.199 2.26h-1.466c-.015-.52-.382-.795-.794-.795-.488 0-.763.382-.763.779 0 .29.076.565.656.794l.916.366c1.16.443 1.527 1.267 1.527 2.183 0 1.282-.977 2.336-2.32 2.336-1.222 0-2.26-.81-2.32-2.336h1.465c.06.428.26.87.84.87.442 0 .87-.32.87-.84 0-.427-.184-.717-.78-.946l-.747-.275c-.977-.366-1.573-1.099-1.573-2.137 0-1.313 1.039-2.26 2.29-2.26zm7.74-3.13c1.435 0 2.503 1.084 2.503 2.596v.61h-1.557v-.519c0-.61-.366-1.13-.961-1.13-.779 0-.962.535-.962 1.268v5.556c0 .626.244 1.115.946 1.115.428 0 .977-.245.977-1.1v-.534h1.557v.672c0 1.343-1.083 2.519-2.473 2.519-1.19 0-2.564-.58-2.564-2.565V28.29c0-1.42 1.023-2.503 2.534-2.503zm5.404 3.13c.946 0 1.664.443 2.03 1.114.214.397.29.947.29 1.573v2.549c0 .626-.076 1.175-.29 1.572-.366.672-1.084 1.115-2.03 1.115-.947 0-1.664-.443-2.03-1.115-.214-.397-.29-.946-.29-1.572v-2.55c0-.625.076-1.175.29-1.572.366-.671 1.083-1.114 2.03-1.114zm24.638 0c1.267 0 2.183.977 2.199 2.26h-1.466c-.015-.52-.382-.795-.794-.795-.488 0-.763.382-.763.779 0 .29.076.565.656.794l.916.366c1.16.443 1.527 1.267 1.527 2.183 0 1.282-.977 2.336-2.32 2.336-1.222 0-2.26-.81-2.32-2.336h1.465c.06.428.26.87.84.87.442 0 .87-.32.87-.84 0-.427-.184-.717-.78-.946l-.747-.275c-.977-.366-1.572-1.099-1.572-2.137 0-1.313 1.038-2.26 2.29-2.26zm4.916 0c1.267 0 2.183.977 2.198 2.26h-1.465c-.016-.52-.382-.795-.794-.795-.489 0-.763.382-.763.779 0 .29.076.565.656.794l.916.366c1.16.443 1.526 1.267 1.526 2.183 0 1.282-.977 2.336-2.32 2.336-1.221 0-2.26-.81-2.32-2.336h1.465c.061.428.26.87.84.87.442 0 .87-.32.87-.84 0-.427-.183-.717-.779-.946l-.748-.275c-.977-.366-1.572-1.099-1.572-2.137 0-1.313 1.038-2.26 2.29-2.26zm-62.634 0l-.001.091h-.488l.397 1.525-.023-.007c-.077-.023-.155-.039-.235-.046l-.124-.006c-.656 0-1.587.412-1.587 1.68v4.594h-1.557v-7.74h1.557v.825c.64-.565 1.16-.916 2.06-.916zm50.727 0c.778 0 1.694.504 1.694 1.893v5.938h-1.557V31.39c0-.565-.275-.916-.763-.916-.58 0-.779.382-.779 1.069v5.205h-1.557V31.39c0-.565-.275-.916-.763-.916-.58 0-.779.382-.779 1.069v5.205h-1.557v-7.74h1.557v.749h.031c.32-.489.748-.84 1.465-.84.672 0 1.115.397 1.39.778.381-.427.793-.778 1.618-.778zm-44.087.092v7.74h-1.557v-7.74h1.557zm35.508-.092c.778 0 1.694.504 1.694 1.893v5.938h-1.557V31.39c0-.565-.275-.916-.763-.916-.58 0-.779.382-.779 1.069v5.205h-1.557V31.39c0-.565-.275-.916-.763-.916-.58 0-.779.382-.779 1.069v5.205h-1.557v-7.74h1.557v.749h.03c.321-.489.749-.84 1.466-.84.672 0 1.115.397 1.39.778.381-.427.793-.778 1.618-.778zm-91.196.092v7.74H60.02v-7.74h1.557zm50.208 0l1.038 4.946h.03l1.038-4.946h1.65l-2.016 7.74h-1.374l-1.618-6.216.092.033-.001-1.558h1.16zm65.855 0v7.74h-1.557v-7.74h1.557zm-101.515-.092c.778 0 1.602.504 1.602 1.893v5.938H76.17V31.39c0-.565-.274-.916-.763-.916-.58 0-.778.382-.778 1.069v5.205h-1.557v-7.74h1.557v.749h.03c.32-.489.748-.84 1.466-.84zm89.303.092v7.74h-1.557v-7.74h1.557zm-105.866-3.13v1.466h-3.084v3.297h2.687v1.465h-2.687v4.641H54.92V25.878h4.64zm25.737 3.13v7.74h-1.557v-7.74H85.3zm-19.845-.092c.779 0 1.603.504 1.603 1.893v5.938H65.5V31.39c0-.565-.275-.916-.763-.916-.58 0-.779.382-.779 1.069v5.205h-1.557v-7.74h1.557v.749h.03c.321-.489.749-.84 1.466-.84zm121.254 0c.778 0 1.603.504 1.603 1.893v5.938h-1.557V31.39c0-.565-.275-.916-.764-.916-.58 0-.778.382-.778 1.069v5.205h-1.557v-7.74h1.557v.749h.03c.32-.489.748-.84 1.466-.84zm-168.88 6.362l-.353.7-.373-.39c.225-.094.482-.205.725-.31zm-.891-1.576l-.064.05c.11.177.128.219 0 .329l-.064.052-.902.707c-.169.133-.207.14-.326.027l-.056-.057-.064.05.477.609.064-.05c-.112-.18-.131-.22-.004-.33l.064-.051.902-.708c.17-.134.21-.142.33-.026l.056.057.064-.05-.477-.609zm53.463-.329c-.672 0-1.221.275-1.221 1.1 0 .595.305.992.809.992.519 0 .84-.367.84-.992v-1.054c-.168-.03-.29-.046-.428-.046zm18.242 0c-.671 0-1.22.275-1.22 1.1 0 .595.304.992.808.992.52 0 .84-.367.84-.992v-1.054c-.168-.03-.29-.046-.428-.046zm92.005-2.9c-.473 0-.763.305-.763.885v3.038c0 .58.29.886.763.886.474 0 .764-.306.764-.886v-3.038c0-.58-.29-.885-.764-.885zm-36.942 0c-.473 0-.763.305-.763.885v3.038c0 .58.29.886.763.886.473 0 .763-.306.763-.886v-3.038c0-.58-.29-.885-.763-.885zm-102.58 2.66l-.447.63.066.047c.138-.156.173-.184.315-.093l.068.047.934.663c.175.124.194.16.118.306l-.038.07.066.046.448-.63-.066-.047c-.14.158-.173.188-.315.097l-.068-.047-.934-.663c-.177-.126-.196-.16-.119-.309l.039-.07-.066-.047zm-25.368-4.484l.923.23.993.246c.05.13.102.26.156.388.434 1.027 1.004 1.978 1.7 2.841l.267.32-.27.975-.251.906-.06-.06c-1.251-1.251-2.234-2.709-2.921-4.333-.21-.495-.389-1-.537-1.513zm13.106-6.667c1.718 0 3.124.61 3.233 1.382l.007.097h.014l1.06 10.923c-.396-.754-2.177-1.323-4.314-1.323-2.044 0-3.761.52-4.254 1.225l-.057.093h-.018l1.094-10.835c-.004-.028-.005-.055-.005-.083 0-.817 1.45-1.479 3.24-1.479zM15.047 32.57c-.427.27-.626.813-.258 1.396.118.185.282.347.341.409.08-.009.233-.041.362-.074l.091-.025-.022-.088c-.322.03-.514-.02-.671-.269-.25-.395-.102-.83.369-1.128.402-.254.834-.23 1.088.172.059.093.105.204.116.286.022.125-.014.228-.097.342l-.071.088.065.065c.11-.097.245-.206.349-.285-.04-.089-.103-.287-.236-.497-.345-.546-.928-.707-1.426-.392zm26.921-3.97c-.151.53-.335 1.05-.551 1.562-.588 1.39-1.393 2.659-2.398 3.78l-.308.333-.245-.857-.3-1.046c.703-.868 1.278-1.825 1.716-2.86l.09-.217.085-.22 1.03-.256.881-.22zm-.272 3.623l-.409.657.069.043c.128-.164.161-.195.309-.112l.07.042.973.605c.185.116.204.149.133.305l-.03.065.068.043.409-.657-.069-.042c-.13.166-.16.198-.308.115l-.07-.042-.973-.605c-.187-.117-.206-.15-.135-.308l.031-.066-.068-.043zm.581-1.09c-.038.048-.148.17-.221.314-.172.34-.053.64.176.756.24.122.44.033.724-.163.238-.164.372-.23.57-.129.167.085.238.264.144.449-.12.238-.356.264-.546.242l-.07-.01-.02.09c.149.052.34.11.422.126.095-.085.206-.196.285-.35.168-.333.08-.671-.19-.808-.244-.124-.43-.05-.746.177-.22.158-.367.225-.544.135-.134-.068-.245-.211-.144-.412.108-.212.277-.229.447-.201l.072.014.025-.088c-.178-.064-.286-.106-.384-.142zM14.92 30.054l-.073.034c.045.134.054.197.011.276-.027.056-.056.083-.1.107l-.05.025-.67.304c-.239.108-.36.156-.447.187-.111.04-.177.015-.246-.085l-.043-.07-.073.034.29.638.073-.033c-.07-.196-.06-.28.071-.346.062-.033.152-.081.317-.159l.108-.05.657-.298-.864 1.749.045.1 1.054-.478c.244-.111.357-.156.442-.192.104-.039.157-.015.227.086l.044.07.073-.033-.294-.649-.073.034c.082.216.072.293-.042.354-.063.037-.15.082-.32.16l-.11.051-.645.292.817-1.713-.179-.395zm89.08.419c-.474 0-.764.305-.764.885v.886h1.527v-.886c0-.58-.29-.885-.764-.885zm21.463 0c-.474 0-.764.305-.764.885v.886h1.527v-.886c0-.58-.29-.885-.763-.885zm-82.649-.644c-.033.052-.131.184-.19.334-.14.355.008.642.247.736.25.098.44-.01.705-.231.222-.186.348-.263.555-.182.174.068.262.24.186.433-.097.248-.33.296-.521.292l-.07-.004-.01.092c.152.038.347.078.43.086.087-.093.187-.215.25-.376.137-.347.018-.675-.264-.786-.255-.1-.434-.01-.727.247-.203.178-.343.26-.529.186-.14-.055-.264-.187-.181-.397.086-.22.253-.253.425-.242l.073.007.017-.09c-.183-.046-.295-.078-.396-.105zm-30.16-1.085l-.077.024.193.638.078-.024c-.041-.234-.031-.28.167-.273l.187.009.196.01.18.597c-.156.11-.278.208-.374.276-.08.06-.117.06-.174-.051l-.03-.065-.078.023.207.683.077-.024c-.037-.203-.023-.234.19-.395l.879-.659.43-.325-.042-.084-1.623-.132c-.278-.022-.31-.06-.386-.228zm30.479.018l-.224.74.077.023c.083-.195.106-.231.277-.186l.072.02 1.096.332c.209.063.236.09.208.26l-.012.07.077.024.224-.74-.077-.024c-.084.197-.105.235-.276.19l-.07-.02-1.097-.332c-.212-.064-.238-.091-.21-.263l.012-.071-.077-.023zm-29.61.374l.254.017.534.034-.631.465-.157-.516zM38.14 23.78v1.371h-3.584c-.234 0-.428.169-.469.39l-.007.086v1.845c0 .233.168.428.39.468l.086.008h3.638v1.425h-3.628c-.902 0-1.641-.692-1.717-1.575l-.006-.148v-2.147c0-.902.692-1.642 1.574-1.717l.149-.006h3.574zm-13.19.067v1.264h-3.682c-.225 0-.412.162-.451.376l-.007.083v.388h4.127v1.237H20.81v2.11h-1.291V25.61c0-.925.712-1.684 1.618-1.757l.145-.006h3.669zm6.871 0h-4.385c-.84 0-1.53.643-1.605 1.464l-.006.147v.14c0 .84.643 1.53 1.464 1.604l.147.006h2.422c.223 0 .403.18.403.404 0 .195-.138.357-.322.395l-.081.008h-4.114v1.29h4.41c.92 0 1.667-.746 1.667-1.667 0-.872-.67-1.588-1.523-1.66l-.144-.007h-2.595c-.23 0-.417-.186-.417-.416 0-.205.148-.375.342-.41l.075-.007h4.262v-1.291zm11.539 3.73c-.113.599.29 1.047.797 1.143.533.1 1.022-.218 1.125-.763.098-.522-.204-1.007-.813-1.122-.565-.107-1.018.257-1.11.742zm-27.715-6.102l.817.782.598.573c-.113.664-.17 1.34-.17 2.025 0 .584.042 1.16.124 1.729l.069.424-.724.751-.659.684c-.317-1.162-.477-2.363-.477-3.588 0-1.152.142-2.283.422-3.38zm28.848 5.664c.548.103.754.41.69.752-.076.403-.52.62-1.047.52-.53-.1-.742-.44-.682-.757.07-.372.444-.627 1.04-.515zm-2.404-5.58c.266 1.072.4 2.174.4 3.296 0 1.035-.114 2.053-.34 3.045l-.104.423-.628-.65-.764-.793c.112-.664.17-1.34.17-2.025 0-.487-.03-.97-.087-1.447l-.066-.475.729-.706.69-.667zm-28.044 4.674l-.08.013c.009.142.002.204-.06.27-.041.046-.077.065-.125.077l-.054.01-.726.12c-.26.042-.389.058-.481.064-.121.01-.178-.034-.22-.156l-.019-.068-.08.013.114.692.08-.013c-.017-.208.014-.286.159-.316.068-.016.167-.039.347-.07l.117-.02.712-.117-1.29 1.463.019.108 1.141-.187c.265-.044.386-.058.477-.07.114-.01.158.028.2.152l.02.07.08-.014-.115-.703-.08.013c.023.23-.006.302-.132.332-.07.019-.166.04-.35.071l-.12.02-.698.115 1.234-1.442-.07-.427zm151.384-.355v1.557h-1.557v-1.557h1.557zm-80.129 0v1.557h-1.557v-1.557H85.3zm31.966 0v1.557h-1.557v-1.557h1.557zm60.375 0v1.557h-1.557v-1.557h1.557zm-116.063 0v1.557H60.02v-1.557h1.557zM43.68 24.46l-.03.713.08.003c.025-.23.068-.295.198-.298.072-.004.17-.005.357 0l.122.005.707.03-1.501 1.162-.018.432.08.004c.02-.14.04-.2.115-.252.05-.037.088-.049.138-.05h.055l.735.03c.262.011.392.022.484.035.12.015.167.069.183.197l.005.07.08.004.03-.7-.081-.004c-.026.207-.072.277-.22.277-.07.002-.171.004-.354-.001l-.119-.005-.72-.03 1.558-1.17.005-.11-1.156-.048c-.268-.011-.39-.022-.481-.029-.114-.012-.15-.06-.165-.19l-.007-.071-.08-.004zm-29.665.803l-.08.005c-.012.211-.022.253-.198.27l-.074.005-1.144.062c-.218.012-.252-.004-.284-.173l-.012-.07-.081.004.042.772.08-.005c.012-.213.02-.256.195-.272l.074-.005 1.144-.063c.22-.012.255.005.287.176l.012.071.081-.004-.042-.773zm-1.847-1.627l-.026.802.081.002c.028-.232.041-.28.22-.283l.075.001.516.017-.011.358c-.006.179-.043.216-.188.243l-.069.011-.003.09.603.02.003-.087c-.176-.044-.224-.061-.228-.204v-.07l.012-.357.666.022c.067.002.085.008.089.053v.042l-.01.308c-.005.162-.03.204-.13.256-.043.026-.088.043-.138.06l-.078.023.009.09c.139-.01.341-.016.445-.015v-.1l.004-.205.003-.102.03-.914-.08-.003c-.028.205-.04.25-.22.252l-.075-.002-1.142-.037c-.22-.007-.26-.029-.273-.198l-.004-.07-.08-.003zm75.188-8.027c.573 0 .802.264 1.1.596v-.527h1.167v6.514c0 .79-.515 1.706-1.752 1.706-.71 0-1.591-.412-1.74-1.74H87.3c.011.275.217.573.618.573.378 0 .538-.264.538-.63v-1.145h-.023c-.251.378-.618.595-1.087.595-.47 0-.813-.171-1.02-.55-.137-.251-.194-.606-.194-1.247l.001-2.426c.006-.68.047-.974.182-1.192.195-.31.481-.527 1.042-.527zm-58.504 4.949c1.683 0 3.13.407 3.776.99l.1.1v.83c-.585-.636-2.1-1.09-3.876-1.09-1.677 0-3.12.405-3.768.985l-.1.098v-.83c.589-.633 2.099-1.083 3.868-1.083zm88.031-7.227v8.152h-1.167v-.527c-.298.332-.527.595-1.11.595-.47 0-.814-.171-1.02-.55-.137-.251-.195-.606-.195-1.247l.001-2.426c.007-.68.047-.974.183-1.192.194-.31.48-.527 1.042-.527.457 0 .824.218 1.076.596h.023V13.33h1.167zm2.187 2.278c.95 0 1.637.733 1.649 1.695h-1.1c-.01-.39-.285-.596-.595-.596-.366 0-.572.287-.572.584 0 .218.057.424.492.596l.687.274c.87.332 1.145.95 1.145 1.638 0 .961-.733 1.751-1.74 1.751-.916 0-1.695-.606-1.74-1.751h1.099c.046.32.194.652.63.652.331 0 .652-.24.652-.63 0-.32-.137-.538-.584-.71l-.56-.205c-.734-.275-1.18-.825-1.18-1.603 0-.985.778-1.695 1.717-1.695zm-14.368-2.278v6.514c0 .435.126.561.572.607l-.047-.006.008.05c.01.047.02.093.031.137l.008.026v.892c-1.03 0-1.682-.251-1.736-1.455l-.004-.17V13.33h1.168zm-3.218 2.278c.95 0 1.638.733 1.649 1.695h-1.1c-.01-.39-.285-.596-.594-.596-.367 0-.573.287-.573.584 0 .218.057.424.492.596l.687.274c.87.332 1.145.95 1.145 1.638 0 .961-.732 1.751-1.74 1.751-.916 0-1.694-.606-1.74-1.751h1.099c.046.32.195.652.63.652.332 0 .652-.24.652-.63 0-.32-.137-.538-.584-.71l-.56-.205c-.733-.275-1.18-.825-1.18-1.603 0-.985.779-1.695 1.717-1.695zm-32.309 0c.95 0 1.637.733 1.649 1.695h-1.1c-.01-.39-.286-.596-.595-.596-.366 0-.572.287-.572.584 0 .218.057.424.492.596l.687.274c.87.332 1.145.95 1.145 1.638 0 .961-.733 1.751-1.74 1.751-.916 0-1.695-.606-1.74-1.751h1.098c.046.32.195.652.63.652.332 0 .653-.24.653-.63 0-.32-.138-.538-.584-.71l-.561-.205c-.733-.275-1.18-.825-1.18-1.603 0-.985.78-1.695 1.718-1.695zm37.84 0c.972 0 1.751.618 1.751 1.832v4.042h-1.168v-.596h-.023c-.309.424-.56.664-1.122.664-.41 0-.926-.153-1.149-.792l-.03-.1v-.207l-.047-.006-.014-.101c-.006-.052-.011-.106-.014-.163l-.005-.176c0-1.328.378-1.97 1.843-1.97.16 0 .32.023.561.035v-.607c0-.39-.149-.687-.584-.687-.297 0-.595.206-.664.584h-1.133c.034-.515.217-.95.526-1.26.31-.309.745-.492 1.271-.492zm-12.698 0c.584 0 1.202.378 1.202 1.42v4.454h-1.167v-4.019c0-.424-.207-.687-.573-.687-.435 0-.584.286-.584.801v3.905h-1.168v-5.805h1.168v.56h.023c.24-.365.561-.629 1.1-.629zM72.461 13.33v2.908h.023c.24-.366.56-.63 1.099-.63.584 0 1.202.378 1.202 1.42v4.454h-1.168v-4.019c0-.424-.206-.687-.572-.687-.435 0-.584.286-.584.801v3.905h-1.168V13.33h1.168zm-9.251 2.347v5.805h-1.168v-5.805h1.168zm35.985-2.347v8.152h-1.168V13.33h1.168zm-16.522 2.347v5.805h-1.167v-5.805h1.167zm28.898-.069c.584 0 1.202.378 1.202 1.42v4.454h-1.168v-4.019c0-.424-.206-.687-.572-.687-.435 0-.584.286-.584.801v3.905h-1.168v-5.805h1.168v.56h.023c.24-.365.56-.629 1.099-.629zm-49.655 0v1.237c-.114-.046-.229-.069-.355-.069-.492 0-1.19.31-1.19 1.26v3.446h-1.168v-5.805h1.168v.618c.48-.423.87-.687 1.545-.687zm-5.472-2.278c1.51 0 2.072.996 2.072 2.06v.298c0 .87-.286 1.191-.802 1.512.55.263.802.755.802 1.603v.458c0 1.42-.676 2.22-2.187 2.22h-1.591V13.33zm21.65 0l.927 5.69h.023l.939-5.69h1.236l-1.671 8.152h-1.03l-1.66-8.152h1.236zm13.315 2.347v5.805h-1.168v-5.805h1.168zm-5.404-.069v1.237c-.114-.046-.229-.069-.355-.069-.492 0-1.19.31-1.19 1.26v3.446h-1.168v-5.805h1.168v.618c.48-.423.87-.687 1.545-.687zm-19.017.069v5.805H65.82v-5.805h1.168zm-1.992-1.763v1.763h.721v.916h-.72v3.217c0 .538.205.573.72.573v1.099h-.48c-1.054 0-1.409-.745-1.409-1.363v-3.526h-.584v-.916h.584v-1.763h1.168zm-45.842 1.363l.347 1 .272.787c-.807.939-1.46 1.99-1.944 3.134l-.138.342-.128.346-.825.24-1.086.317c.167-.644.38-1.277.642-1.895.675-1.597 1.638-3.033 2.86-4.271zm19.677.286c1.093 1.171 1.962 2.51 2.586 3.985.185.438.346.882.483 1.333l.13.452-.921-.263-.997-.285c-.072-.197-.148-.393-.23-.587-.361-.853-.816-1.654-1.358-2.396l-.279-.365.33-1.057.256-.817zm-10.648.826v.638c.215-.021.44-.033.672-.033.155 0 .306.005.454.015l.219.018v-.638h.484v.706c.96.176 1.626.564 1.626 1.015 0 .031-.003.062-.01.093-.078-.383-.64-.712-1.441-.887l-.175-.035v.84c.96.176 1.626.564 1.626 1.015 0 .032-.003.063-.01.093-.078-.383-.64-.711-1.441-.887l-.175-.035v.923c.905.137 1.64.43 2.033.805l.091.095v.996c-.495-.576-1.778-.986-3.283-.986-1.412 0-2.628.36-3.182.88l-.096.099v-.995c.337-.386 1.028-.696 1.902-.857l.222-.037v-.923c-.893.164-1.532.512-1.617.922-.006-.03-.01-.061-.01-.093 0-.422.586-.79 1.45-.98l.177-.035v-.84c-.893.164-1.532.511-1.617.922-.006-.03-.01-.062-.01-.093 0-.423.586-.79 1.45-.98l.177-.035v-.706h.484zm79.095 2.562c-.504 0-.916.206-.916.825 0 .446.229.744.606.744.39 0 .63-.275.63-.744v-.79c-.126-.023-.217-.035-.32-.035zm7.854-2.175c-.447 0-.573.32-.573.687v2.13c0 .469.172.79.573.79.355 0 .584-.298.584-.722v-2.255c0-.367-.252-.63-.584-.63zm-27.26 0c-.401 0-.573.32-.573.79v2.13c0 .366.126.687.572.687.332 0 .584-.264.584-.63v-2.256c0-.423-.229-.72-.584-.72zm-31.451.927h-.516v2.61h.504c.94 0 1.008-.572 1.008-1.373 0-.813-.15-1.237-.996-1.237zm-27.566.504c-.154 0-.306.005-.453.014l-.219.019v.933c.217-.018.44-.028.67-.028.154 0 .305.005.454.013l.22.015v-.933c-.215-.022-.44-.033-.672-.033zm-14.65-1.314c-.094.085-.206.197-.284.351-.168.332-.081.67.189.808.244.124.43.05.747-.178.219-.157.366-.225.544-.135.134.068.245.212.143.413-.107.211-.277.228-.446.2l-.072-.014-.025.088c.177.064.286.106.383.143.038-.049.149-.171.222-.315.172-.34.052-.64-.177-.756-.239-.121-.44-.032-.723.164-.239.163-.372.228-.57.128-.167-.085-.238-.264-.144-.449.12-.238.356-.264.546-.241l.07.01.019-.09c-.148-.053-.339-.11-.421-.127zm28.33-.599c-.244.138-.25.399-.154.663-.115-.121-.332-.254-.568-.12-.128.071-.187.184-.198.306-.008.09.012.195.075.33l.055.107.37.659.071-.04c-.085-.187-.092-.235.048-.323l.069-.04 1.008-.568c.174-.098.218-.11.32.024l.049.066.07-.04-.348-.618c-.1-.176-.196-.29-.343-.38-.164-.103-.353-.122-.524-.026zm-13.68.886c-.154 0-.306.005-.453.015l-.219.018v.84c.215-.021.44-.033.672-.033.155 0 .306.006.454.015l.219.018v-.84c-.216-.021-.44-.033-.673-.033zm13.606 0l.053.083.072.128-.48.27c-.081.046-.113.054-.14.042-.031-.015-.064-.056-.104-.126-.136-.242-.06-.426.115-.525.184-.103.342-.075.484.127zm-13.673-2.525l2.585 1.407c.09.04.173.082.249.126l.107.067.105.077c.194.156.302.33.302.513 0 .247-.196.476-.532.668.176-.15.273-.316.273-.492 0-.653-1.354-1.183-3.025-1.183-1.67 0-3.025.53-3.025 1.183 0 .172.094.335.262.482-.326-.19-.514-.416-.514-.658 0-.183.108-.357.302-.513l.104-.076.126-.079.141-.074 2.54-1.448zm14.498 2.05c.088.157.083.229-.041.313l-.06.037-.511.287-.068-.12c-.173-.308-.164-.551.092-.695.264-.149.478-.017.588.179zm-27.828-1.888l-.374.562c-.197.295-.3.563-.285.837.016.278.168.545.449.732.23.154.456.18.65.139.21-.048.397-.183.592-.443l.084-.12.445-.667-.068-.044c-.126.152-.164.189-.31.103l-.069-.044-.958-.639c-.172-.115-.202-.145-.127-.298l.038-.073-.067-.045zm-.028.6l.064.038.99.66c.093.062.113.089.113.12.003.037-.021.104-.093.212-.107.161-.226.283-.37.347-.241.113-.5.069-.762-.106-.42-.28-.568-.698-.28-1.13.105-.157.196-.21.338-.14zm26.385-1.136l-.072.038c.025.063.038.136.016.248-.02.096-.046.183-.107.359-.054.146-.138.36-.18.455-.2-.119-.42-.156-.62-.01-.143.103-.202.242-.193.382.004.105.045.209.124.334l.067.097.432.596.065-.047c-.098-.175-.12-.22.01-.325l.065-.05.932-.675c.174-.126.212-.135.327-.015l.054.059.066-.048-.453-.623-.065.047c.102.175.12.224-.01.33l-.065.049-.367.266-.059-.082c-.086-.12-.094-.16-.053-.26.065-.162.15-.353.207-.526.07-.207.049-.33-.063-.51-.02-.032-.036-.06-.058-.09zm14.571.148h-.48v2.244h.526c.779 0 .985-.4.985-1.145 0-.721-.264-1.099-1.03-1.099zm-15.038 1.04l.079.016c.068.017.127.057.19.127l.064.081.081.112-.572.415c-.061.044-.09.054-.121.045-.026-.006-.064-.04-.113-.107-.13-.18-.16-.412.09-.593.076-.055.15-.088.225-.096h.077zm-8.643-3.696c.494.145.98.319 1.457.521 1.624.687 3.082 1.67 4.334 2.921l.05.051.05.051-.828.186-1.14.255c-.934-.8-1.978-1.448-3.115-1.929l-.132-.054-.132-.053-.279-1.001-.265-.948zm-15.642 1.202l-.469.521.06.054c.152-.143.233-.167.346-.073.055.043.135.105.273.226l.089.079.537.482-1.948-.09-.074.082.862.773c.2.18.286.265.352.329.078.079.078.137.013.241l-.047.069.06.054.476-.53-.06-.054c-.165.162-.24.184-.342.104-.058-.043-.135-.105-.274-.228l-.092-.081-.526-.473 1.898.06.289-.323-.06-.054c-.106.096-.159.13-.25.122-.06-.003-.098-.018-.138-.049l-.042-.035-.547-.492c-.196-.175-.288-.266-.351-.334-.082-.086-.085-.156-.021-.26l.046-.066-.06-.054zm8.453-1.341l-.302 1.123-.205.763c-.273.093-.544.196-.811.31-.925.39-1.79.892-2.582 1.496l-.336.266-1.017-.196-1.03-.198c1.247-1.243 2.7-2.22 4.315-2.904.642-.271 1.299-.492 1.968-.66zm15.587 1.896l-.06.053c.12.172.143.211.022.328l-.061.056-.86.757c-.163.144-.201.155-.327.046l-.06-.054-.061.054.511.58.06-.054c-.12-.17-.14-.21-.018-.328l.061-.055.86-.758c.16-.142.2-.152.324-.045l.06.053.06-.053-.511-.58zm-1.157-1.14l-.056.06c.165.175.182.227.08.347l-.05.056-.962 1.025-.21-.197c-.116-.109-.123-.143-.104-.232.009-.04.029-.094.055-.152l.042-.086-.07-.053c-.077.1-.172.214-.254.306l-.076.085.05.047c.053-.008.08-.006.114.02l.04.032.833.782c.044.041.07.063.072.105l-.004.05.049.045c.077-.074.164-.153.253-.231l.133-.118-.063-.059c-.1.052-.164.087-.23.105-.075.024-.12.017-.193-.043l-.062-.055-.192-.18.962-1.024c.136-.146.181-.168.33-.057l.07.056.055-.059-.612-.574zm51.463.94v1.168h-1.168V13.33h1.168zm-8.736 0v1.168h-1.167V13.33h1.167zm-19.463 0v1.168h-1.168V13.33h1.168zm3.778 0v1.168H65.82V13.33h1.168zm-48.267-1.795l-.507.433.053.062c.198-.132.244-.141.318.043l.067.174.069.184-.474.405c-.164-.098-.302-.17-.404-.232-.087-.048-.1-.083-.022-.18l.047-.053-.053-.061-.541.463.052.061c.17-.115.206-.115.439.016l.956.539.471.264.06-.073-.532-1.54c-.08-.23-.073-.293.012-.396l.041-.048-.052-.061zm20.015-.125l-.05.064c.153.146.182.18.085.318l-.05.066-.7.906c-.134.171-.17.189-.314.106l-.07-.041-.049.064.612.473.049-.064c-.15-.145-.177-.18-.08-.319l.05-.066.7-.905c.132-.17.168-.188.31-.106l.07.04.049-.063-.612-.473zm-19.971 1.14l.086.238.183.503-.68-.39.41-.352zm10.09-1.328c1.092 0 2.164.127 3.207.38l.446.115-.693.707-.67.684c-.748-.146-1.513-.219-2.29-.219-.489 0-.974.03-1.453.087l-.477.067-.586-.586-.822-.823c1.084-.274 2.2-.412 3.338-.412zm8.349-.255c-.15.23-.097.422.094.762.133.235.184.389.075.555-.082.126-.237.22-.426.098-.198-.13-.196-.3-.15-.466l.021-.07-.084-.035c-.083.17-.137.273-.184.366.044.043.154.166.289.254.319.209.63.123.77-.092.147-.225.08-.434-.083-.737-.137-.255-.187-.395-.065-.58.103-.158.288-.209.462-.095.223.146.223.383.18.57l-.018.067.088.03c.068-.142.147-.325.171-.405-.073-.104-.172-.227-.317-.321-.311-.204-.658-.155-.823.099zm-16.983-.435l-1.118.74c.02.073.084.279.127.4l.027.074.087-.03c-.023-.114-.036-.243-.017-.346.015-.096.042-.135.164-.216l.192-.123c.119-.076.166-.072.239.024l.038.055.649.979c.12.18.12.224-.003.33l-.06.05.045.068.644-.427-.044-.067c-.18.094-.227.11-.326-.026l-.047-.067-.632-.955c-.119-.179-.125-.22.012-.34l.068-.056-.045-.067zm15.095-1.098l-.035.072c.175.113.212.141.146.292l-.034.073-.512 1.037c-.096.194-.128.217-.292.16l-.068-.025-.036.072.694.343.036-.072c-.174-.106-.21-.144-.146-.295l.034-.073.203-.41.885.436-.203.412c-.093.187-.131.215-.284.163l-.073-.028-.036.073.69.341.037-.072c-.175-.109-.21-.141-.144-.293l.035-.073.512-1.038c.096-.193.128-.211.29-.157l.066.024.036-.072-.69-.342-.037.073c.175.114.21.142.144.291l-.034.072-.255.518-.885-.438.256-.517c.095-.193.124-.21.29-.156l.068.024.036-.072-.694-.343zm-13.795.458c-.126.014-.281.04-.434.122-.33.173-.454.5-.313.768.128.242.322.29.712.286.27-.001.43.029.522.205.07.133.078.314-.121.42-.21.11-.358.026-.48-.095l-.051-.053-.071.057c.107.155.171.252.23.338.06-.018.22-.053.363-.129.336-.177.412-.491.293-.719-.126-.237-.34-.28-.685-.284-.29-.004-.436-.028-.54-.225-.087-.166-.042-.353.142-.45.236-.124.443-.009.586.12l.05.048.068-.063c-.09-.128-.212-.285-.27-.346zm1.095-.54l-.71.304.031.074c.205-.062.247-.07.323.09l.03.067.451 1.053c.087.202.084.24-.066.33l-.063.036.032.074.711-.305-.032-.074c-.202.062-.245.067-.32-.092l-.031-.068-.451-1.053c-.085-.197-.082-.237.058-.322l.07-.04-.033-.074zm10.807-.585c-.235.305-.884 1.124-1.012 1.286-.15.193-.21.226-.352.212l-.066-.008-.023.078.638.183.023-.078c-.22-.093-.246-.128-.139-.27.23-.313.544-.713.793-1.028.043.51.087 1.12.098 1.343.008.1-.006.135-.152.118l-.07-.011-.023.078.704.202.023-.078c-.165-.065-.204-.106-.223-.334-.033-.38-.075-.941-.109-1.403l-.019-.264-.091-.026zm-7.816-.325l-.679.175.02.079c.206-.036.286-.012.329.13.022.066.054.163.101.339l.03.115.18.699-1.572-1.154-.106.028.289 1.12c.067.26.091.379.112.47.02.111-.014.159-.134.212l-.067.027.02.078.69-.178-.02-.078c-.227.043-.301.02-.342-.103-.025-.068-.054-.162-.102-.341l-.031-.119-.177-.685 1.547 1.1.42-.107-.02-.079c-.141.022-.204.02-.275-.036-.05-.037-.072-.07-.089-.117l-.015-.053-.184-.713c-.065-.254-.092-.381-.106-.473-.021-.12.017-.18.135-.232l.066-.025-.02-.079zm5.858-.08l-.015.08c.205.061.245.078.22.252l-.012.073-.206 1.127c-.04.217-.063.247-.237.239l-.072-.005-.015.08.76.138.015-.079c-.202-.06-.241-.08-.216-.254l.012-.074.206-1.126c.039-.215.063-.244.234-.237l.072.005.014-.08-.76-.138zm-4.656-.084l-.765.11.012.08c.214-.008.256-.004.288.17l.012.072.163 1.134c.032.219.018.254-.149.302l-.07.018.012.08.765-.11-.011-.08c-.212.007-.255.002-.287-.172l-.011-.074-.164-1.133c-.03-.216-.018-.252.148-.299l.069-.018-.012-.08zm2.523-.16l-.018.08c.064.023.128.06.198.15.06.077.109.154.202.316.075.136.182.34.226.433-.22.074-.392.216-.413.463-.016.175.051.311.162.396.083.065.188.102.334.124l.118.013.733.064.007-.08c-.2-.041-.246-.055-.24-.229l.005-.073.1-1.147c.018-.217.037-.25.21-.257l.072-.003.007-.08-.768-.066-.007.08c.203.038.25.056.243.231l-.005.074-.039.45-.1-.008c-.147-.012-.183-.033-.233-.13-.08-.154-.167-.344-.26-.5-.112-.19-.22-.254-.428-.286-.037-.006-.069-.012-.106-.015zm-1.323.019c-.242.01-.473.083-.65.13.012.052.019.111.023.175l.005.099.01.242c.006.149-.001.18-.122.207l-.06.011.004.084.741-.03-.003-.084c-.247-.008-.293-.026-.307-.178l-.004-.064-.01-.236c-.004-.118.032-.152.091-.189.057-.03.145-.055.243-.059.56-.023.815.423.833.882.022.527-.251.842-.692.86-.084.003-.203-.006-.27-.027-.158-.045-.245-.125-.316-.3l-.035-.095-.086.02c.03.181.052.356.062.463.09.01.309.06.603.047.577-.023 1.058-.407 1.033-1.015-.024-.58-.438-.97-1.093-.943zm2.22 1.002l.084.005.138.012-.061.704c-.007.075-.018.103-.045.12-.022.016-.072.024-.155.016-.221-.019-.416-.148-.39-.456.014-.155.07-.266.19-.34.045-.033.099-.05.166-.058l.073-.003z"/>
    </g>
</svg>
