<svg xmlns="http://www.w3.org/2000/svg" width="160" height="50" viewBox="0 0 160 50">
    <g fill="none" fill-rule="evenodd">
        <path d="M0 0H160V50H0z"/>
        <path fill="#728099" d="M95.988 27.23c.565.08 1.122.202 1.653.434.305.133.377.311.24.599-.025.053-.05.107-.073.162-.2.493-.269 1.166-.634 1.434-.443.326-.859-.37-1.34-.515-1.179-.354-2.344-.532-3.534-.056-1.34.536-1.602 2.061-.498 2.996.736.623 1.645.93 2.505 1.32.808.367 1.618.717 2.35 1.236 1.477 1.047 1.842 2.532 1.581 4.193-.243 1.555-1.232 2.567-2.683 3.127-.31.12-.627.224-.944.327l-.475.157h-3.324c-.537-.298-1.152-.312-1.727-.469-1.402-.38-1.41-.367-.868-1.692.39-.953.385-.941 1.312-.513 1.332.615 2.71.968 4.189.658.835-.176 1.474-.604 1.68-1.473.199-.839-.04-1.562-.72-2.123-.852-.704-1.885-1.064-2.868-1.517-.718-.331-1.448-.644-2.056-1.157-2.242-1.889-1.839-5.222.792-6.55 1.738-.876 3.582-.846 5.442-.578zM42.976 29.52c.943 1.072 1.533 2.309 1.718 3.709.368 2.79-.192 5.313-2.306 7.328-1.105 1.053-2.443 1.65-3.928 1.943-.108.021-.242-.015-.321.082l-.035.061h-2.968c-.245-.265-.6-.25-.908-.327-3.089-.775-5.194-3.249-5.415-6.426-.219-3.148.74-5.782 3.46-7.572 3.052-2.007 8.226-1.613 10.703 1.202zm83.463-1.923c2.885 1.038 4.485 3.153 4.75 6.198.28 3.192-.745 5.837-3.515 7.647-.839.548-1.78.835-2.746 1.054-.093.021-.208-.005-.262.09l-.021.057h-3.087c-.402-.306-.907-.314-1.363-.455-2.828-.87-4.762-3.341-4.95-6.293-.111-1.735.122-3.385.961-4.923 1-1.833 2.533-2.994 4.526-3.557 1.92-.543 3.842-.49 5.707.182zM25.293 27.12c.05.004.1.006.149.011.155.014.316-.029.465.048.833.04 1.63.224 2.4.546.243.1.28.198.184.434-.227.565-.428 1.141-.636 1.715-.087.24-.172.388-.447.157-.411-.345-.904-.549-1.41-.718-.361-.06-.733-.064-1.075-.219-1.049-.097-2.07.046-3.07.358-3.162 1.911-4.135 5.664-2.262 8.72 1.188 1.939 3.57 2.846 6.062 2.305.638-.138 1.26-.33 1.816-.68.297-.186.457-.142.554.206.063.226.177.438.27.656.395.924.398.93-.554 1.318-.622.254-1.27.42-1.933.526-.095.015-.207-.009-.263.084l-.022.057h-3.443c-.242-.27-.598-.242-.903-.331-2.857-.838-4.777-2.63-5.306-5.6-.628-3.53.778-7.223 4.45-8.857.034-.016.07-.027.107-.035l.229-.042.206-.125.333-.125c1.335-.468 2.71-.52 4.1-.409zm81.81.112c.586.082 1.162.219 1.705.472.227.105.29.216.188.454-.217.509-.429 1.021-.61 1.543-.12.347-.255.353-.545.162-1.155-.76-2.426-1.019-3.79-.785-1.279.218-1.946.963-1.85 2.042.053.608.42 1.005.89 1.33.933.648 2.022.98 3.024 1.487.387.196.777.386 1.154.6 1.73.98 2.328 2.513 2.055 4.415-.252 1.76-1.394 2.763-2.997 3.332-.325.116-.683.125-.998.273l-.153.087h-3.324c-.511-.312-1.113-.297-1.667-.461-1.373-.408-1.378-.39-.899-1.677.38-1.022.37-1.001 1.349-.529 1.307.632 2.674.948 4.132.658.838-.167 1.494-.594 1.698-1.453.208-.872-.033-1.65-.775-2.217-.857-.656-1.862-1.028-2.835-1.458-.946-.418-1.873-.87-2.564-1.662-1.62-1.859-1.054-4.708 1.158-5.93 1.793-.993 3.713-.954 5.655-.683zm-20.937.747c-.2 1.913-.114 3.833-.118 5.75-.004 1.596.007 3.192.02 4.788l.016 2.394v.059c-.008.45.303 1.027.003 1.31-.334.315-.942.07-1.429.106-.059.004-.118.006-.177.006l-.356-.004c-.908 0-.94-.003-.859-.88.141-1.52.078-3.043.093-4.564.026-2.572-.008-5.144-.026-7.716-.004-.454-.023-.912-.095-1.358-.082-.505.13-.622.578-.581.313.029.632.005.948.005.256 0 .52.036.769-.007.594-.1.685.198.633.692zm57.673-.695c.45.05.91.033 1.363.003.362-.023.484.09.466.462-.056 1.166-.062 2.333-.087 3.499-.053 2.454-.016 4.91-.018 7.366 0 .191.006.38.052.564l.043.137h.117v2.972l-.052.002h-.052c-.793.221-1.6.07-2.399.078-.259.003-.353-.287-.484-.48-2.065-3.041-4.127-6.085-6.195-9.124-.366-.539-.752-1.065-1.136-1.592-.062-.086-.125-.224-.274-.152-.11.053-.084.173-.082.265.04 2.058-.049 4.115.052 6.173.076 1.541.047 3.087.072 4.631.003.202-.073.297-.269.297-.652.001-1.305-.004-1.957.004-.35.004-.3-.243-.297-.453.014-.99-.001-1.981.058-2.968.128-2.117.08-4.234.062-6.35-.013-1.602-.055-3.204-.122-4.804-.019-.432.102-.55.517-.528.591.032 1.19.049 1.778-.003.543-.049.857.176 1.164.597 2.25 3.082 4.421 6.217 6.539 9.39.107.16.171.363.382.448.224-.101.127-.307.126-.462-.016-3.089-.024-6.177-.079-9.265-.01-.582.139-.77.712-.707zm-66.03 0h.118c.79.037 1.582.022 2.373.005.325-.007.452.087.45.433-.013 2.217.083 4.432.214 6.643.148 2.487.351 4.97.556 7.453.037.45-.073.604-.53.58-.632-.035-1.267-.029-1.9-.002-.383.016-.513-.099-.506-.499.02-1.247.026-2.497-.01-3.744-.062-2.215-.159-4.43-.243-6.644-.006-.152.034-.321-.181-.474-.458 1.238-.914 2.45-1.354 3.668-.853 2.358-1.705 4.716-2.536 7.081-.162.463-.402.684-.906.612-.272-.04-.553-.008-.83-.008-1.049 0-1.145 0-1.417-.799l-.089-.265c-1.081-3.28-2.162-6.56-3.245-9.838-.018-.054-.061-.1-.093-.15l-.229.228c-.006.01-.014.018-.024.024-.253 2.16-.46 4.326-.595 6.498-.082 1.302-.17 2.604-.24 3.907-.015.27-.104.4-.385.397-.613-.008-1.226-.005-1.84 0-.282.001-.367-.092-.322-.398.44-2.995.736-6.005.936-9.027.116-1.757.228-3.514.293-5.274.012-.314.107-.408.412-.402.85.016 1.702.028 2.552-.004.42-.016.622.1.747.528 1.073 3.701 2.474 7.29 3.73 10.93.065.185.136.369.208.568.301-.18.327-.497.43-.761 1.374-3.554 2.635-7.15 3.858-10.757.103-.302.235-.459.495-.5l.104-.01zm33.709.003c.202.033.411.02.62.013l.209-.006.626.001c.903.007.887.097.825 1.173-.178 3.105-.134 6.213-.102 9.32.013 1.364.061 2.728.12 4.091.018.395-.105.53-.496.516-.632-.024-1.267-.031-1.898.002-.436.023-.541-.151-.517-.552.205-3.323.106-6.65.114-9.975.003-1.305-.053-2.61-.117-3.915-.023-.48.039-.764.616-.668zm-49.847 0c.363-.01.415.146.413.457-.018 2.99.178 5.971.354 8.953.102 1.736.273 3.468.435 5.2.034.369-.065.506-.438.496-.672-.018-1.346-.026-2.017.003-.409.018-.491-.15-.495-.521-.022-2.217-.014-4.436-.123-6.649-.066-1.334.015-2.682-.238-4.085-.397.436-.367 1.005-.68 1.399-.095.433-.22.854-.464 1.231.017.03.011.056-.018.076-.741 2.08-1.48 4.162-2.225 6.242-.226.632-.496 1.25-.692 1.89-.105.341-.285.423-.603.414-.554-.017-1.109-.022-1.662.001-.386.017-.542-.147-.662-.509-1.127-3.41-2.276-6.814-3.42-10.219-.067-.2-.086-.425-.335-.62-.122 1.169-.267 2.29-.352 3.416-.186 2.485-.446 4.965-.496 7.459-.006.308-.086.482-.438.471-.593-.017-1.187-.016-1.78 0-.326.01-.41-.119-.364-.428.583-3.935.894-7.897 1.158-11.863.054-.809-.006-1.621.102-2.431.043-.32.167-.384.45-.38.89.012 1.78.012 2.67.001.273-.003.396.067.486.364 1.136 3.783 2.581 7.46 3.848 11.198.044.13-.001.364.233.348.174-.011.16-.204.207-.326l1.866-4.93c.104-.275.225-.544.339-.816l.03-.115c.114-.416.204-.842.45-1.209.48-1.418.964-2.836 1.44-4.256.083-.248.263-.256.47-.255.85.002 1.7.018 2.55-.007zm57.42 4.088c-1.112 1.98-1.137 4.073-.379 6.179 1.208 3.356 5.636 4.239 8.044 1.606 1.115-1.218 1.455-2.72 1.467-3.912 0-1.451-.167-2.456-.623-3.397-.807-1.665-2.124-2.632-3.972-2.765-1.945-.139-3.553.534-4.537 2.289zM36.755 29.07l-.25.008c-1.956.099-3.344 1.066-4.125 2.875-.606 1.405-.693 2.871-.436 4.36.431 2.493 2.157 4.375 4.81 4.348 1.802.014 3.228-.726 4.1-2.238 1.247-2.16 1.285-4.436.26-6.654-.807-1.75-2.247-2.648-4.113-2.698l-.246-.001zM26.135 8.123c.914.09 1.777.325 2.642.594.344.107.51.236.343.633-.206.49-.36 1.001-.524 1.508-.076.236-.195.267-.391.139-1.111-.728-2.378-.992-3.66-1.015-2.682-.05-5.276 1.109-5.801 4.547-.34 2.231.09 4.22 1.789 5.792.874.81 1.926 1.303 3.154 1.285.768-.01 1.536.055 2.304-.105.382-.079.489-.248.485-.595-.009-.792-.003-1.585-.002-2.377 0-.773.014-1.546-.006-2.318-.008-.326.082-.465.429-.455.652.021 1.306.026 1.958 0 .377-.015.497.135.457.486-.096.846-.083 1.696-.108 2.545-.034 1.169.113 2.33.118 3.496.001.334-.087.514-.408.603-2.582.715-5.19 1.07-7.802.245-2.86-.904-4.847-2.766-5.265-5.812-.487-3.54 1.031-6.963 4.6-8.527 1.827-.801 3.737-.861 5.689-.67zm95.124.628c.336.111.382.27.267.563-.16.404-.31.811-.45 1.223-.127.375-.232.526-.7.29-1.79-.903-3.686-1.09-5.621-.555-2.11.584-3.276 2.054-3.629 4.168-.295 1.77-.078 3.471.978 4.984.926 1.327 2.209 2.082 3.822 2.17.821.045 1.657.108 2.477-.103.237-.06.4-.134.423-.404.133-1.597.182-3.195.022-4.792-.037-.368.015-.557.444-.539.652.028 1.306.022 1.958.002.343-.011.442.124.437.45-.015 1.03-.005 2.06-.005 3.09 0 .99-.016 1.981.008 2.971.009.354-.101.524-.443.634-.962.31-1.955.455-2.95.585-1.62.213-3.232.158-4.796-.345-2.851-.92-4.842-2.75-5.294-5.785-.53-3.569 1.095-7.182 4.785-8.616 2.754-1.07 5.51-.907 8.267.009zm-23.3 1.285c1.872 2.812 3.904 5.517 5.758 8.345.092.141.156.388.362.34.27-.061.148-.33.148-.505.006-3.088.053-6.177-.124-9.262-.033-.573.165-.749.693-.673.136.02.277.003.415.003 1.298 0 1.39 0 1.397 1.092v.283c-.002 4.359-.01 8.717.012 13.075.002.52-.142.61-.65.676-1.383.182-2.18-.34-2.929-1.542-1.8-2.89-3.701-5.718-5.665-8.503l-.987-1.389-.342.01c-.001 1.625-.103 3.257.02 4.872.156 2.055-.059 4.113.173 6.16.03.256-.11.363-.35.364-.633.001-1.266-.007-1.899.003-.372.006-.34-.242-.332-.484.036-1.086.097-2.173.102-3.26.015-2.753.027-5.506-.008-8.26-.01-.867-.078-1.736-.104-2.605-.012-.406.134-.54.51-.494.098.012.202.018.297-.001 1.631-.335 2.606.41 3.502 1.755zm-47.417-1.76c.423-.014.487.28.567.554.513 1.742 1.11 3.456 1.71 5.168.675 1.918 1.335 3.84 2.016 5.755.066.185.043.506.313.51.23.003.225-.294.29-.465.788-2.084 1.578-4.168 2.339-6.263.585-1.612 1.135-3.237 1.687-4.86.099-.29.247-.405.557-.397.79.018 1.582.014 2.372.002.29-.005.404.076.439.393.053.493.07.983.085 1.476.099 3.453.223 6.905.57 10.345.08.804.091 1.616.154 2.422.03.37-.113.486-.472.474-.632-.022-1.266-.017-1.898-.002-.356.008-.508-.132-.492-.49.016-.356-.004-.713.005-1.07.06-2.395-.11-4.785-.154-7.179-.01-.536-.04-1.075-.067-1.615l-.037-.81-.168-.003-.168-.004L58.82 16l-1.37 3.782c-.369 1.02-.746 2.04-1.106 3.064-.131.375-.314.633-.763.54-.057-.011-.118-.001-.178-.001-1.815.002-1.812 0-2.386-1.74-.999-3.033-2-6.066-3.009-9.096-.054-.164-.024-.473-.309-.415-.238.049-.172.318-.189.508-.196 2.22-.426 4.437-.575 6.66-.075 1.122-.213 2.245-.154 3.374.026.507-.134.782-.712.718-.43-.048-.87-.03-1.303-.003-.403.026-.533-.136-.484-.518.135-1.057.273-2.113.385-3.171.163-1.55.33-3.1.45-4.652.164-2.125.328-4.251.37-6.384.005-.278.108-.387.386-.384.89.009 1.78.022 2.67-.005zm38.846 0c.652.03 1.306.018 1.958.003.31-.007.423.112.414.418-.015.554-.004 1.11-.004 1.916-.151 2.636-.164 5.527-.088 8.416.032 1.225.047 2.452.097 3.676.02.506-.117.73-.66.688-.53-.042-1.068-.036-1.6-.001-.455.03-.642-.098-.605-.587.07-.926.121-1.855.124-2.783.01-3.11.005-6.22-.021-9.33-.006-.63-.1-1.258-.103-1.892-.002-.368.076-.543.488-.524zm-10.731-.007l.104.005c.59.041 1.186.02 1.778.006.298-.007.423.084.415.406-.045 1.836-.121 3.67-.19 5.504-.049 1.32-.08 2.645.047 3.97.08.844.063 1.702.031 2.551-.02.536.175.68.685.665 1.874-.058 3.752.072 5.625-.112.348-.035.511.022.362.456-.533 1.544-.556 1.655-1.958 1.663l-3.062.001c-1.266 0-2.531-.018-3.796.01-.456.01-.625-.101-.597-.592.145-2.608.126-5.219.137-7.83.01-2.017-.064-4.033-.141-6.047-.018-.47.108-.639.465-.655h.095zm-8.071.027c1.528.061 3.039.283 4.273 1.304 1.502 1.243 1.513 3.37.045 4.66-.33.29-.681.556-1.09.728l-.208.078.017.338.194.045c1.54.402 2.76 1.738 2.852 3.159.123 1.924-.952 3.56-2.741 4.184-1.164.406-2.366.58-3.593.59-1.383.01-2.767-.01-4.15.009-.466.007-.615-.067-.582-.62.052-.865.062-1.732.062-2.6l-.006-1.734c-.003-3.068-.017-6.136-.028-9.204v-.246c.004-.703.087-.703.982-.703 1.325 0 2.65-.042 3.973.012zm-33.305-.15l.109.004c.255.023.514.005.771.005 1.31 0 1.3.004 1.75 1.217 1.676 4.515 3.46 8.987 5.38 13.403.26.6.252.605-.398.609h-.95c-1.423 0-1.432.004-1.963-1.281-.338-.82-.655-1.65-.961-2.483-.132-.359-.316-.52-.733-.513-1.74.027-3.481.018-5.222.005-.357-.002-.555.079-.701.456-.457 1.177-.985 2.327-1.46 3.497-.104.254-.25.322-.491.32-.614-.005-1.227-.015-1.84.004-.37.01-.45-.085-.284-.437.697-1.482 1.386-2.968 2.056-4.462.93-2.073 1.843-4.153 2.76-6.232.54-1.227 1.086-2.454 1.606-3.69.108-.258.253-.386.472-.416l.1-.007zM68.718 16.5c-.3-.002-.362.164-.36.416l.002 1.01-.001 1.009h.013c0 .673.003 1.345-.001 2.018-.002.243.032.432.342.43 1.222-.003 2.45.078 3.644-.275.922-.272 1.523-1.063 1.58-2.067.053-.931-.514-1.731-1.427-2.098-1.024-.41-2.086-.436-3.152-.44l-.64-.003zM37.9 11.126c-.089.082-.13.103-.143.135-.764 1.837-1.525 3.676-2.288 5.514-.143.345.056.395.288.402h.064l3.847.003c.382 0 .481-.122.33-.508-.428-1.1-.781-2.23-1.238-3.319-.303-.72-.402-1.52-.86-2.227zm30.897-.938c-.338.008-.432.2-.426.506l.005.862-.003.861h-.014v1.724c0 .229.002.448.324.445 1.102-.01 2.217.104 3.274-.348.902-.386 1.433-1.126 1.381-1.942-.06-.948-.61-1.611-1.6-1.9-.964-.282-1.954-.23-2.94-.208z"/>
    </g>
</svg>
