<svg xmlns="http://www.w3.org/2000/svg" width="215" height="50" viewBox="0 0 215 50">
    <g fill="none" fill-rule="evenodd">
        <path d="M0 0H214.286V50H0z"/>
        <path fill="#728099" d="M84.924 12.319c-.52 1.654-1.354 4.395-1.354 4.395s-1.354-.181-2.786 0c.39.801 1.432 2.03 1.432 4.628 0 2.598-1.757 7.562-8.748 7.562-1.074 0-2.402-.33-2.402-.33s-.332.252-.332 1.008c0 .757.664 1.377 1.992 1.649 1.328.271 6.874.387 8.963 1.88 2.09 1.493 2.558 2.637 2.558 4.092 0 1.454-1.054 7-10.428 7-9.373 0-10.955-4.208-10.955-6.03 0-1.823 1.172-3.937 3.671-4.635-1.27-1.319-1.386-1.648-1.386-2.52 0-.873.742-2.696 2.792-3.704-1.699-1.28-3.671-2.89-3.671-6.38 0-3.49 2.832-7.788 9.041-7.788 1.934 0 3.496.66 4.297 1.267 0 0 2.057-2.663 7.316-2.094zM23.931 23.798v11.479c0 2.766-1.718 4.085-2.083 4.395-.364.31-3.384 2.404-3.619 2.585-.234.181-.495.465-.833.276-.314-.177-.045-.709-.005-.784l.005-.009 6.535-17.942zm45.592 11.194c-.508.407-1.054 1.106-1.054 2.094 0 2.133 3.554 2.909 5.214 2.909 1.66 0 4.53-.31 4.53-2.017 0-1.706-4.12-2.094-5.917-2.23-1.797-.135-2.773-.756-2.773-.756zm90.67-6.654v5.632l.005.23c.032.668.213 1.17.542 1.504.357.37.94.557 1.746.557.79 0 1.373-.186 1.746-.557.366-.388.549-.966.549-1.734v-5.632h1.49v5.607l-.004.247c-.044 1.052-.374 1.868-.99 2.448-.662.608-1.593.911-2.79.911-1.207 0-2.133-.3-2.78-.898-.67-.633-1.006-1.536-1.006-2.708v-5.607h1.491zm-6.947-.177c1.393 0 2.49.447 3.288 1.341.765.844 1.147 1.966 1.147 3.367 0 1.384-.382 2.501-1.147 3.354-.799.885-1.895 1.328-3.288 1.328-1.394 0-2.49-.447-3.289-1.341-.756-.852-1.134-1.966-1.134-3.341 0-1.384.378-2.502 1.134-3.354.782-.903 1.878-1.354 3.289-1.354zm-27.977.177v5.632l.005.23c.033.668.214 1.17.543 1.504.357.37.939.557 1.746.557.79 0 1.372-.186 1.746-.557.366-.388.548-.966.548-1.734v-5.632h1.491v5.607l-.005.247c-.044 1.052-.373 1.868-.989 2.448-.662.608-1.593.911-2.791.911-1.207 0-2.133-.3-2.779-.898-.67-.633-1.006-1.536-1.006-2.708v-5.607h1.49zm-5.48 0l3.479 9.036h-1.594l-.828-2.265h-3.811l-.828 2.265h-1.594l3.48-9.036h1.695zm19.717 0v1.266h-2.983v7.77h-1.491v-7.77h-2.983v-1.266h7.457zm2.192 0v3.771h4.614v-3.77h1.491v9.035h-1.491v-3.999h-4.614v4h-1.491v-9.037h1.491zm27.467 0v9.036h-1.491v-9.036h1.491zm8.03 0l.127.194v1.072h-2.982v7.77h-1.491v-7.77h-2.983v-1.266h7.329zm1.797 0l2.55 4.063 2.536-4.063h1.797l-3.595 5.442v3.594h-1.49V33.78l-3.468-5.248v-.194h1.67zm-25.746 1.126c-.935 0-1.666.317-2.193.95-.492.599-.739 1.417-.739 2.455 0 1.03.247 1.843.74 2.442.51.625 1.24.937 2.192.937.943 0 1.67-.3 2.18-.899.5-.599.751-1.426.751-2.48 0-1.055-.25-1.89-.752-2.506-.501-.599-1.228-.899-2.18-.899zM95.28 13.198c4.725 0 8.221 2.133 8.748 6.32 0 2.51-.094 12.709.344 14.448l.027.096h-5.272l-1.074-1.726-.024.023c-.246.237-2.366 2.187-5.503 2.187-3.34 0-7.186-2.346-7.186-6.786 0-4.44 4.55-7.388 12.361-6.7-.058-1.367-.703-3.034-3.574-3.054-2.78-.018-5.122 1.237-5.265 1.315l-.007.004-2.265-4.053s3.964-2.074 8.69-2.074zm-41.341-.052c7.1 0 7.26 6.589 7.264 6.795v14.043h-6.666V20.592s-.39-1.913-2.603-1.913c-2.134 0-3.76 1.394-3.874 1.494l-.006.005v13.806h-6.691V20.586c-.008-.11-.158-1.881-2.63-1.881-2.46 0-3.783 1.322-3.875 1.416l-.005.005v13.858h-6.457V13.689h5.311l.73 2.275s3.02-2.818 6.926-2.818c3.905 0 5.363 3.102 5.363 3.102s3.307-3.102 7.213-3.102zm65.032 16.787h-.05l-1.44 3.961h2.918l-1.428-3.961zM5.852 17.303l.01.005 18.07 6.49-18.07 6.489s-.607.336-.799 0c-.191-.336.095-.595.278-.827.182-.233 2.291-3.232 2.603-3.594.313-.362 1.64-2.068 4.427-2.068l-.283-.006c-2.594-.11-3.842-1.713-4.144-2.063-.312-.362-2.421-3.36-2.603-3.593-.183-.233-.469-.491-.278-.828.178-.312.714-.044.79-.004zm88.14 7.78c-1.367.35-2.226 1.494-2.226 2.308 0 .815.644 2.172 2.812 2.172 2.08 0 2.974-.786 3.042-.85l.004-.003v-3.82s-2.265-.155-3.632.194zm-20.778-7.251c-1.992 0-3.047 2.133-3.047 3.228 0 1.096.88 3.229 3.047 3.229 2.167 0 3.183-1.59 3.183-3.18s-1.66-3.277-3.183-3.277zM18.229 5.338c.235.181 3.255 2.275 3.62 2.586.364.31 2.082 1.628 2.082 4.395v11.479L17.396 5.855s-.338-.602 0-.792c.338-.19.599.094.833.275zm187.873 7.636c1.173 0 2.095.257 2.766.772.654.506 1.062 1.261 1.224 2.265h-1.504l-.048-.186c-.142-.482-.398-.855-.768-1.117-.416-.287-.973-.43-1.67-.43-.858 0-1.534.286-2.026.86-.544.6-.816 1.456-.816 2.57 0 1.062.242 1.88.726 2.455.527.607 1.343.91 2.448.91.433 0 .84-.05 1.223-.151.34-.093.667-.232.982-.418v-1.86h-2.41v-1.266h3.9V21.2l-.205.154c-.421.298-.905.533-1.451.707-.663.202-1.398.304-2.205.304-1.445 0-2.57-.456-3.378-1.367-.747-.844-1.121-1.94-1.121-3.29 0-1.36.374-2.473 1.121-3.342.782-.928 1.853-1.392 3.212-1.392zm-40.493 0c1.173 0 2.095.257 2.766.772.654.506 1.062 1.261 1.223 2.265h-1.504l-.047-.186c-.142-.482-.398-.855-.768-1.117-.417-.287-.973-.43-1.67-.43-.858 0-1.534.286-2.027.86-.543.6-.815 1.456-.815 2.57 0 1.062.242 1.88.726 2.455.527.607 1.343.91 2.447.91.434 0 .842-.05 1.224-.151.34-.093.667-.232.981-.418v-1.86h-2.409v-1.266h3.9V21.2l-.205.154c-.421.298-.905.533-1.451.707-.663.202-1.398.304-2.205.304-1.445 0-2.57-.456-3.378-1.367-.748-.844-1.122-1.94-1.122-3.29 0-1.36.374-2.473 1.122-3.342.782-.928 1.852-1.392 3.212-1.392zm-16.786.177v1.266h-2.983v7.77h-1.49v-7.77h-2.983V13.15h7.456zm-17.908 0l3.48 9.036H132.8l-.828-2.265h-3.811l-.828 2.265h-1.594l3.48-9.036h1.695zm22.891 0l3.48 9.036h-1.593l-.829-2.265h-3.81l-.83 2.265h-1.592l3.48-9.036h1.694zm21.388 0l3.48 9.036h-1.594l-.828-2.265h-3.811l-.829 2.265h-1.593l3.48-9.036h1.695zm-38.811 0v7.77h4.92v1.266h-6.398v-9.036h1.478zm44.546 0l3.098 7.087h.05l3.085-7.087h1.746v9.036h-1.491v-6.226h-.051l-2.677 6.226h-1.287l-2.677-6.226h-.05v6.226h-1.492v-9.036h1.746zm10.872 0v9.036h-1.49v-9.036h1.49zm-74.55 0l3.098 7.087h.05l3.085-7.087h1.747v9.036h-1.492v-6.226h-.05l-2.677 6.226h-1.288l-2.676-6.226h-.051v6.226h-1.491v-9.036h1.746zm77.444 0l4.499 6.518h.051v-6.518h1.504v9.036h-1.453l-4.55-6.606h-.051v6.606h-1.491v-9.036h1.49zm-64.596 1.595h-.05l-1.44 3.961h2.918l-1.428-3.961zm44.28 0h-.052l-1.44 3.961h2.919l-1.428-3.961zm-21.388 0h-.051l-1.44 3.961h2.918l-1.427-3.961z"/>
    </g>
</svg>
