<svg xmlns="http://www.w3.org/2000/svg" width="160" height="50" viewBox="0 0 160 50">
    <g fill="none" fill-rule="evenodd">
        <path d="M0 0H160V50H0z"/>
        <path fill="#728099" d="M39.717 22.649c.182.126.186.364.216.563.298 2.184.142 4.43-.455 6.552-.868 3.114-2.671 5.955-5.105 8.081-2.363 2.078-5.332 3.46-8.449 3.91-.48-3.706-.962-7.412-1.444-11.118-.04-.303-.016-.631.156-.893.155-.246.447-.397.738-.373.551.036.893.561 1.014 1.052.4 1.21.81 2.416 1.21 3.625 2.771.01 5.542-.005 8.314-.005 2.155-3.097 3.094-7.02 2.529-10.754-.06-.23.011-.493.211-.634.306-.216.758-.226 1.065-.006zm-31.143.165c.106.156.091.35.058.527-.55 3.718.393 7.615 2.532 10.7 2.772.007 5.544.013 8.316.01.39-1.175.786-2.347 1.177-3.522.084-.25.153-.513.317-.726.198-.277.537-.47.884-.428.264.026.504.197.627.43.138.251.153.55.116.828-.48 3.707-.956 7.415-1.435 11.121-3.577-.513-6.951-2.264-9.455-4.863-2.379-2.448-3.994-5.633-4.517-9.009-.256-1.638-.26-3.316-.003-4.954.038-.237.273-.379.492-.42.32-.059.703.02.891.306zm103.656-7.307c.565-.001.844.25.858.877.038 1.586.134 3.171.213 4.888-2.74-.864-5.125-.776-6.915 1.591-1.027 1.359-1.06 3.531-.085 4.936 1.842 2.656 4.359 2.64 7.2 1.614-.092 1.356-.182 2.604-.26 3.852-.134 2.127-.132 2.11-2.26 2.161-3.32.081-6.26-.817-8.382-3.549-2.403-3.094-2.64-6.62-1.36-10.177 1.27-3.531 3.954-5.567 7.621-6.14 1.1-.171 2.245-.052 3.37-.053zm13.236-.473c5.422.01 9.76 4.542 9.748 10.184-.014 5.739-4.322 10.22-9.818 10.213-5.456-.007-9.71-4.466-9.724-10.19-.013-5.74 4.283-10.217 9.794-10.207zm-27.991 1.94c.178.12.396.464.34.6-.572 1.395-1.197 2.77-1.803 4.141-.966-.357-1.808-.76-2.695-.98-3.988-.992-7.148 1.88-6.464 5.868.482 2.812 3.22 4.199 6.032 3.433.223-.06.463-.512.477-.793.057-1.098.053-2.203.018-3.303-.018-.567.144-.808.748-.79 1.164.032 2.33.022 3.496 0 .499-.01.68.17.677.677-.017 2.62.011 5.24-.033 7.859-.005.28-.325.72-.59.804-3.287 1.06-6.63 1.353-9.943.207-3.429-1.186-5.347-3.72-5.807-7.265-.501-3.86.414-7.279 3.573-9.85 3.139-2.554 8.664-2.84 11.974-.608zm47.265-1.457c.91.035 1.844.304 2.706.63 3.115 1.178 4.574 5.014 2.995 7.979-.391.735-1.067 1.399-1.764 1.863-.632.42-.61.713-.316 1.29 1.124 2.21 2.21 4.44 3.308 6.663.143.289.274.583.48 1.026-1.79 0-3.434.036-5.071-.038-.254-.01-.56-.484-.718-.805-1.06-2.174-2.087-4.364-3.129-6.548-.075-.159-.18-.304-.465-.457l-.056.526c-.007.087-.012.175-.012.263-.004 2.061-.016 4.123.012 6.184.008.647-.175.928-.87.903-1.053-.038-2.108-.024-3.197-.017l-.824.003V15.487c2.32 0 4.624-.06 6.921.03zm-74.332-.049l.152.006c1.293.08 2.596-.014 3.891.047.287.014.723.312.81.574 2.044 6.1 4.05 12.212 6.057 18.323.045.137.026.294.047.57-1.596 0-3.158.036-4.716-.036-.241-.011-.56-.478-.671-.795-.55-1.567-.183-1.349-1.92-1.373-1.54-.022-3.08.03-4.618-.01-.664-.016-.944.25-1.147.86-.507 1.512-.111 1.339-1.833 1.356-1.201.011-2.402.002-3.768.002.479-1.402.908-2.675 1.348-3.943 1.685-4.85 3.392-9.691 5.041-14.553.237-.699.55-.997 1.186-1.026l.141-.002zm-46.901-.361c.262 1.872.51 3.747.77 5.62.647-.81 1.287-1.626 1.937-2.435-.089 1.07-.194 2.138-.285 3.208 1.192-.766 2.379-1.54 3.573-2.302-.769 1.19-1.539 2.378-2.304 3.57 1.123-.133 2.245-.264 3.367-.398-.9.668-1.81 1.323-2.707 1.997 1.294.278 2.593.538 3.885.824-1.331.338-2.675.63-4.009.958.905.655 1.812 1.306 2.713 1.967-1.169-.126-2.336-.263-3.505-.392.772 1.154 1.57 2.29 2.337 3.446-1.132-.694-2.257-1.402-3.382-2.108-.503-.279-1.19-.096-1.513.373-.11.152-.168.334-.193.519-.227 1.665-.458 3.33-.684 4.995-.252-1.696-.455-3.401-.702-5.099-.13-.728-1.048-1.149-1.69-.792-1.131.706-2.256 1.423-3.396 2.114l2.357-3.448c-1.175.128-2.35.27-3.526.391.908-.654 1.816-1.31 2.72-1.97-1.337-.316-2.673-.63-4.01-.948 1.29-.299 2.594-.542 3.886-.835-.89-.666-1.791-1.314-2.677-1.983 1.118.119 2.233.26 3.35.389-.76-1.187-1.535-2.365-2.289-3.554 1.19.75 2.361 1.528 3.546 2.285-.091-1.067-.196-2.132-.284-3.199.656.801 1.288 1.621 1.938 2.427l.586-4.304c.045-.292.076-.586.118-.879l.073-.437zm26.59.362c2.888.155 5.74-.313 8.54.482 2.5.71 3.935 2.399 4.259 4.974.133 1.06.138 2.179-.04 3.229-.587 3.433-2.969 5.326-6.702 5.471-1.233.048-1.233.048-1.233 1.31 0 1.082.026 2.165-.026 3.245-.012.23-.309.63-.486.637-1.133.043-2.267.036-3.432.032l-.88-.002V15.47zm-16.502 8.21c.138.17.131.4.161.606.227 1.996-.15 4.055-1.064 5.844-.574 1.132-1.36 2.155-2.302 3.005-.06.071-.159.054-.24.058-.739 0-1.478.01-2.216.005 1.346-.795 2.498-1.925 3.275-3.284.985-1.697 1.393-3.724 1.116-5.668-.028-.17-.032-.356.067-.504.252-.399.914-.44 1.203-.061zm-18.885.091c.09.157.063.344.04.515-.29 2.091.221 4.274 1.377 6.037.76 1.18 1.814 2.156 3.016 2.875-.758.004-1.516-.005-2.274-.006-.07.009-.132-.018-.179-.067-1.313-1.18-2.315-2.7-2.88-4.372-.52-1.53-.672-3.183-.435-4.781.028-.265.248-.484.506-.534.307-.07.674.046.83.333zm-2.513-.638c.322.069.563.402.487.731-.306 2.048-.005 4.177.84 6.066.537 1.209 1.301 2.311 2.222 3.26l-1.861.003c-2.15-2.648-3.109-6.217-2.582-9.586.07-.393.537-.584.894-.474zm25.642.075c.348 2.067.216 4.212-.382 6.222-.386 1.32-.968 2.577-1.669 3.76-.564.004-1.129 0-1.693.002 2-2.714 2.88-6.223 2.395-9.558-.028-.157-.033-.326.044-.47.231-.506 1.143-.517 1.305.044zm-2.062.395c.344 2.22.057 4.532-.803 6.607-.442 1.07-1.039 2.073-1.76 2.98-.629.004-1.258 0-1.887.001 1.346-1.355 2.331-3.067 2.821-4.914.39-1.449.47-2.978.243-4.461-.052-.334.22-.64.54-.693.347-.088.78.105.846.48zm-25.631-.776c.31.085.522.419.453.736-.502 3.356.378 6.891 2.386 9.627-.565.001-1.13.004-1.695-.002-.934-1.58-1.65-3.304-1.992-5.113-.307-1.6-.326-3.255-.058-4.862.09-.381.573-.5.906-.386zm115.28-2.46c-2.58-.003-4.589 2.072-4.605 4.755-.017 2.87 1.89 4.913 4.592 4.92 2.646.008 4.649-2.036 4.676-4.772.027-2.755-2.013-4.9-4.664-4.903zm-53.274 1.317l-.277.007-1.482 4.957-.381 1.277h4.055l-1.915-6.24zm-17.228-.498l-.001 1.259c0 .524-.033 1.052.003 1.573.005.074.011.148.02.222.023.219.275.55.47.589 1.225.247 2.49-.682 2.684-1.912.233-1.471-.552-2.59-1.954-2.785-1.147-.159-1.22-.096-1.222 1.054zm88.372-1.496c-.216.023-.558.365-.566.57-.054 1.269-.055 2.542-.002 3.81.008.205.358.545.577.567 1.563.163 2.698-.887 2.715-2.444.017-1.613-1.113-2.678-2.724-2.503zM37.379 16.217c.236.416.464.836.697 1.253.231.431.416.92.349 1.417-.094.647-.708 1.128-1.337 1.194-.307.034-.616-.069-.849-.269-.446.655-.899 1.305-1.341 1.962-.24-.397-.455-.81-.684-1.213l1.334-1.877c-.608.335-1.214.672-1.823 1.006-.206-.371-.413-.741-.616-1.114 1.425-.782 2.845-1.575 4.27-2.359zm-26.448.582c.52.19 1.022.536 1.246 1.06.211.486.116 1.052-.127 1.509-.043.098-.118.19-.132.296.37.222.75.426 1.13.63-.207.368-.419.733-.62 1.105-1.42-.786-2.838-1.58-4.265-2.357.193-.36.392-.717.588-1.075.237-.426.53-.846.958-1.098.368-.216.83-.225 1.222-.07zm-1.13 1.698c.345.184.683.383 1.027.572.088-.17.193-.35.178-.55l-1.205-.022zm27.256-.655c-.352.202-.709.395-1.067.586.097.166.188.354.365.447.363.2.887-.1.892-.516.005-.19-.104-.356-.19-.517zm-23.647-5.58c1.466.886 2.942 1.752 4.412 2.63-.337.294-.675.587-1.011.882l-.495-.3c-.43.376-.856.756-1.29 1.125.065.181.138.36.21.538-.337.286-.66.586-1.001.867-.637-1.599-1.275-3.197-1.911-4.796.36-.318.723-.631 1.086-.946zm20.884 1.02c.142.659.02 1.37-.347 1.937-.46.759-1.33 1.244-2.215 1.253-.634-.006-1.258-.273-1.701-.725-.57-.551-.802-1.398-.655-2.17.171-1.062 1.048-1.98 2.117-2.158 1.23-.27 2.569.631 2.8 1.863zm-20.498.615c.23.518.457 1.036.692 1.551l.751-.652-1.443-.899zm17.836-1.14c-.61.139-1.074.79-.95 1.413.08.582.678 1.023 1.257.937.576-.058 1.047-.582 1.085-1.151.025-.333-.1-.675-.341-.907-.271-.267-.681-.383-1.051-.292zM21.64 9.174c-.08.42-.16.838-.235 1.258-.448-.124-.946-.192-1.383.006-.413.175-.7.6-.717 1.047-.016.415.141.866.503 1.1.408.29.982.238 1.388-.028-.092-.394-.18-.789-.27-1.183.413-.092.825-.188 1.239-.278l.526 2.267c-.63.431-1.385.681-2.145.73-.668.045-1.36-.19-1.822-.684-.47-.5-.689-1.195-.704-1.871-.018-.84.429-1.672 1.142-2.117.73-.454 1.672-.548 2.478-.247zm6.177.041l-.13 1.443c-.272-.158-.578-.27-.896-.262-.403-.008-.814.19-1.03.534-.273.436-.207 1.058.173 1.412.395.395 1.021.447 1.53.267-.103.485-.203.97-.303 1.455-.707.058-1.453-.125-2.019-.562-.491-.384-.813-.975-.864-1.596-.074-.833.202-1.734.864-2.277.723-.625 1.795-.76 2.675-.414z"/>
    </g>
</svg>
